<mxfile host="www.draw.io" modified="2019-12-18T02:17:18.084Z" agent="Mozilla/5.0 (Windows NT 10.0; Win64; x64) AppleWebKit/537.36 (KHTML, like Gecko) Chrome/74.0.3729.108 Safari/537.36" etag="nM6KTxmnIs4k3MmmBmuw" version="12.4.2" type="github" pages="1">
  <diagram id="mF_2idaaimMzujCOcK6k" name="第 1 页">
    <mxGraphModel dx="2214" dy="1124" grid="1" gridSize="10" guides="1" tooltips="1" connect="1" arrows="1" fold="1" page="1" pageScale="1" pageWidth="1169" pageHeight="1654" math="0" shadow="0">
      <root>
        <mxCell id="0"/>
        <mxCell id="1" parent="0"/>
        <mxCell id="EhvMbtUl6NeCa-5dUTGM-2" value="&lt;font style=&quot;font-size: 17px&quot;&gt;正向流程&lt;/font&gt;" style="rounded=0;whiteSpace=wrap;html=1;" parent="1" vertex="1">
          <mxGeometry x="321.85" y="1086" width="240" height="80" as="geometry"/>
        </mxCell>
        <mxCell id="EhvMbtUl6NeCa-5dUTGM-3" value="&lt;font style=&quot;font-size: 17px&quot;&gt;逆向流程&lt;/font&gt;" style="rounded=0;whiteSpace=wrap;html=1;" parent="1" vertex="1">
          <mxGeometry x="561.85" y="1086" width="160" height="80" as="geometry"/>
        </mxCell>
        <mxCell id="EhvMbtUl6NeCa-5dUTGM-4" value="&lt;font style=&quot;font-size: 17px&quot;&gt;状态机&lt;/font&gt;" style="rounded=0;whiteSpace=wrap;html=1;" parent="1" vertex="1">
          <mxGeometry x="321.85" y="1166" width="400" height="120" as="geometry"/>
        </mxCell>
        <mxCell id="EhvMbtUl6NeCa-5dUTGM-5" value="&lt;font style=&quot;font-size: 14px&quot;&gt;金&lt;br&gt;额&lt;br&gt;计&lt;br&gt;算&lt;/font&gt;" style="rounded=0;whiteSpace=wrap;html=1;" parent="1" vertex="1">
          <mxGeometry x="721.85" y="1086" width="40" height="200" as="geometry"/>
        </mxCell>
        <mxCell id="EhvMbtUl6NeCa-5dUTGM-6" value="&lt;font style=&quot;font-size: 14px&quot;&gt;订&lt;br&gt;单&lt;br&gt;搜&lt;br&gt;索&lt;/font&gt;" style="rounded=0;whiteSpace=wrap;html=1;" parent="1" vertex="1">
          <mxGeometry x="761.85" y="1086" width="40" height="200" as="geometry"/>
        </mxCell>
        <mxCell id="EhvMbtUl6NeCa-5dUTGM-7" value="&lt;font style=&quot;font-size: 14px&quot;&gt;投&lt;br&gt;诉&lt;br&gt;处&lt;br&gt;理&lt;/font&gt;" style="rounded=0;whiteSpace=wrap;html=1;" parent="1" vertex="1">
          <mxGeometry x="801.85" y="1086" width="40" height="200" as="geometry"/>
        </mxCell>
        <mxCell id="EhvMbtUl6NeCa-5dUTGM-8" value="&lt;font style=&quot;font-size: 17px&quot;&gt;订单主数据&lt;/font&gt;" style="rounded=0;whiteSpace=wrap;html=1;" parent="1" vertex="1">
          <mxGeometry x="321.85" y="1296" width="240" height="80" as="geometry"/>
        </mxCell>
        <mxCell id="EhvMbtUl6NeCa-5dUTGM-10" value="&lt;font style=&quot;font-size: 17px&quot;&gt;退款数据&lt;/font&gt;" style="rounded=0;whiteSpace=wrap;html=1;" parent="1" vertex="1">
          <mxGeometry x="561.85" y="1296" width="170" height="80" as="geometry"/>
        </mxCell>
        <mxCell id="EhvMbtUl6NeCa-5dUTGM-11" value="&lt;font style=&quot;font-size: 14px&quot;&gt;基于交易行为的&lt;br&gt;画像数据&lt;/font&gt;" style="rounded=0;whiteSpace=wrap;html=1;" parent="1" vertex="1">
          <mxGeometry x="721.85" y="1296" width="160" height="80" as="geometry"/>
        </mxCell>
        <mxCell id="EhvMbtUl6NeCa-5dUTGM-13" value="&lt;font style=&quot;font-size: 17px&quot;&gt;用户服务&lt;/font&gt;" style="rounded=0;whiteSpace=wrap;html=1;" parent="1" vertex="1">
          <mxGeometry x="321.85" y="994" width="560" height="80" as="geometry"/>
        </mxCell>
        <mxCell id="EhvMbtUl6NeCa-5dUTGM-15" value="" style="endArrow=none;dashed=1;html=1;fillColor=#d80073;strokeColor=#A50040;" parent="1" edge="1">
          <mxGeometry width="50" height="50" relative="1" as="geometry">
            <mxPoint x="121.85" y="1080" as="sourcePoint"/>
            <mxPoint x="1041.85" y="1080" as="targetPoint"/>
          </mxGeometry>
        </mxCell>
        <mxCell id="EhvMbtUl6NeCa-5dUTGM-16" value="" style="endArrow=none;dashed=1;html=1;fillColor=#d80073;strokeColor=#A50040;" parent="1" edge="1">
          <mxGeometry width="50" height="50" relative="1" as="geometry">
            <mxPoint x="121.85" y="1291" as="sourcePoint"/>
            <mxPoint x="1041.85" y="1291" as="targetPoint"/>
          </mxGeometry>
        </mxCell>
        <mxCell id="EhvMbtUl6NeCa-5dUTGM-17" value="&lt;font style=&quot;font-size: 14px&quot;&gt;推&lt;br&gt;送&lt;br&gt;功&lt;br&gt;能&lt;br&gt;&lt;/font&gt;" style="rounded=0;whiteSpace=wrap;html=1;" parent="1" vertex="1">
          <mxGeometry x="841.85" y="1086" width="40" height="200" as="geometry"/>
        </mxCell>
        <mxCell id="EhvMbtUl6NeCa-5dUTGM-18" value="&lt;pre style=&quot;white-space: pre-wrap ; text-align: left ; line-height: 1.75 ; font-size: 15px&quot;&gt;&lt;span style=&quot;font-size: 15px&quot;&gt;正向交易流程，99%的订单会根据这个流程走完生命周期；&lt;/span&gt;&lt;/pre&gt;&lt;pre style=&quot;white-space: pre-wrap ; text-align: left ; line-height: 1.75 ; font-size: 15px&quot;&gt;&lt;span style=&quot;font-size: 15px&quot;&gt;逆向交易流程，比如说退单要求时效性比较低，处理会牵扯多方业务可能很复杂，专门梳理出一个流程。&lt;/span&gt;&lt;/pre&gt;&lt;div style=&quot;white-space: pre-wrap ; text-align: left ; line-height: 1.75 ; font-size: 15px&quot;&gt;&lt;br style=&quot;font-size: 15px&quot;&gt;&lt;/div&gt;" style="text;html=1;strokeColor=none;fillColor=none;align=center;verticalAlign=middle;whiteSpace=wrap;rounded=0;fontSize=15;fontFamily=Helvetica;" parent="1" vertex="1">
          <mxGeometry x="257.34999999999997" y="1490" width="730" height="20" as="geometry"/>
        </mxCell>
        <mxCell id="EhvMbtUl6NeCa-5dUTGM-20" value="&lt;pre&gt;正向交易流程:&amp;nbsp; 订单生成------&amp;gt;支付订单------&amp;gt;卖家发货------&amp;gt;确认收货------&amp;gt;交易成功。也是订单的核心流程&lt;/pre&gt;" style="text;html=1;fontSize=15;fontFamily=Helvetica;" parent="1" vertex="1">
          <mxGeometry x="276.85" y="1396" width="763" height="30" as="geometry"/>
        </mxCell>
        <mxCell id="EhvMbtUl6NeCa-5dUTGM-21" value="&lt;pre&gt;订单字段包含：商品信息，用户信息，订单信息，金额信息四大主要信息。&lt;/pre&gt;" style="text;html=1;fontSize=15;fontFamily=Helvetica;" parent="1" vertex="1">
          <mxGeometry x="275.35" y="1510" width="400" height="30" as="geometry"/>
        </mxCell>
        <mxCell id="EhvMbtUl6NeCa-5dUTGM-22" value="订单服务" style="text;html=1;strokeColor=none;fillColor=none;align=center;verticalAlign=middle;whiteSpace=wrap;rounded=0;fontFamily=Helvetica;fontSize=22;" parent="1" vertex="1">
          <mxGeometry x="488.35" y="940" width="190" height="20" as="geometry"/>
        </mxCell>
        <mxCell id="EhvMbtUl6NeCa-5dUTGM-23" value="商品服务功能" style="text;html=1;strokeColor=none;fillColor=none;align=center;verticalAlign=middle;whiteSpace=wrap;rounded=0;fontFamily=Helvetica;fontSize=22;" parent="1" vertex="1">
          <mxGeometry x="487.35" y="80" width="190" height="20" as="geometry"/>
        </mxCell>
        <mxCell id="EhvMbtUl6NeCa-5dUTGM-24" value="&lt;font style=&quot;font-size: 16px&quot;&gt;商品审核&lt;/font&gt;" style="rounded=0;whiteSpace=wrap;html=1;fontFamily=Helvetica;fontSize=22;" parent="1" vertex="1">
          <mxGeometry x="350.35" y="330" width="120" height="60" as="geometry"/>
        </mxCell>
        <mxCell id="EhvMbtUl6NeCa-5dUTGM-25" value="&lt;font style=&quot;font-size: 16px&quot;&gt;商品上架&lt;/font&gt;" style="rounded=0;whiteSpace=wrap;html=1;fontFamily=Helvetica;fontSize=22;" parent="1" vertex="1">
          <mxGeometry x="470.35" y="330" width="120" height="60" as="geometry"/>
        </mxCell>
        <mxCell id="EhvMbtUl6NeCa-5dUTGM-26" value="&lt;font style=&quot;font-size: 16px&quot;&gt;商品下架&lt;/font&gt;" style="rounded=0;whiteSpace=wrap;html=1;fontFamily=Helvetica;fontSize=22;" parent="1" vertex="1">
          <mxGeometry x="590.35" y="330" width="120" height="60" as="geometry"/>
        </mxCell>
        <mxCell id="EhvMbtUl6NeCa-5dUTGM-27" value="&lt;font style=&quot;font-size: 16px&quot;&gt;商品编辑&lt;/font&gt;" style="rounded=0;whiteSpace=wrap;html=1;fontFamily=Helvetica;fontSize=22;" parent="1" vertex="1">
          <mxGeometry x="710.35" y="330" width="120" height="60" as="geometry"/>
        </mxCell>
        <mxCell id="EhvMbtUl6NeCa-5dUTGM-28" value="&lt;font style=&quot;font-size: 16px&quot;&gt;商品类目&lt;/font&gt;" style="rounded=0;whiteSpace=wrap;html=1;fontFamily=Helvetica;fontSize=22;" parent="1" vertex="1">
          <mxGeometry x="350.35" y="270" width="120" height="60" as="geometry"/>
        </mxCell>
        <mxCell id="EhvMbtUl6NeCa-5dUTGM-29" value="&lt;font style=&quot;font-size: 16px&quot;&gt;商品属性&lt;/font&gt;" style="rounded=0;whiteSpace=wrap;html=1;fontFamily=Helvetica;fontSize=22;" parent="1" vertex="1">
          <mxGeometry x="470.35" y="270" width="120" height="60" as="geometry"/>
        </mxCell>
        <mxCell id="EhvMbtUl6NeCa-5dUTGM-30" value="&lt;font style=&quot;font-size: 16px&quot;&gt;商品打标(特卖)&lt;/font&gt;" style="rounded=0;whiteSpace=wrap;html=1;fontFamily=Helvetica;fontSize=22;" parent="1" vertex="1">
          <mxGeometry x="590.35" y="270" width="120" height="60" as="geometry"/>
        </mxCell>
        <mxCell id="EhvMbtUl6NeCa-5dUTGM-32" value="&lt;font style=&quot;font-size: 16px&quot;&gt;商品搜索&lt;/font&gt;" style="rounded=0;whiteSpace=wrap;html=1;fontFamily=Helvetica;fontSize=22;" parent="1" vertex="1">
          <mxGeometry x="350.35" y="210" width="120" height="60" as="geometry"/>
        </mxCell>
        <mxCell id="EhvMbtUl6NeCa-5dUTGM-33" value="&lt;font style=&quot;font-size: 16px&quot;&gt;商品查询&lt;/font&gt;" style="rounded=0;whiteSpace=wrap;html=1;fontFamily=Helvetica;fontSize=22;" parent="1" vertex="1">
          <mxGeometry x="470.35" y="210" width="120" height="60" as="geometry"/>
        </mxCell>
        <mxCell id="EhvMbtUl6NeCa-5dUTGM-34" value="&lt;font style=&quot;font-size: 16px&quot;&gt;销量管理&lt;/font&gt;" style="rounded=0;whiteSpace=wrap;html=1;fontFamily=Helvetica;fontSize=22;" parent="1" vertex="1">
          <mxGeometry x="590.35" y="210" width="120" height="60" as="geometry"/>
        </mxCell>
        <mxCell id="EhvMbtUl6NeCa-5dUTGM-35" value="&lt;font style=&quot;font-size: 16px&quot;&gt;商品收藏&lt;/font&gt;" style="rounded=0;whiteSpace=wrap;html=1;fontFamily=Helvetica;fontSize=22;" parent="1" vertex="1">
          <mxGeometry x="350.35" y="150" width="120" height="60" as="geometry"/>
        </mxCell>
        <mxCell id="EhvMbtUl6NeCa-5dUTGM-36" value="&lt;span style=&quot;font-size: 16px&quot;&gt;浏览历史&lt;/span&gt;" style="rounded=0;whiteSpace=wrap;html=1;fontFamily=Helvetica;fontSize=22;" parent="1" vertex="1">
          <mxGeometry x="470.35" y="150" width="120" height="60" as="geometry"/>
        </mxCell>
        <mxCell id="EhvMbtUl6NeCa-5dUTGM-37" value="&lt;font style=&quot;font-size: 16px&quot;&gt;商品快照&lt;/font&gt;" style="rounded=0;whiteSpace=wrap;html=1;fontFamily=Helvetica;fontSize=22;" parent="1" vertex="1">
          <mxGeometry x="830.35" y="330" width="120" height="60" as="geometry"/>
        </mxCell>
        <mxCell id="EhvMbtUl6NeCa-5dUTGM-38" value="&lt;font style=&quot;font-size: 16px&quot;&gt;商品关联&lt;/font&gt;" style="rounded=0;whiteSpace=wrap;html=1;fontFamily=Helvetica;fontSize=22;" parent="1" vertex="1">
          <mxGeometry x="710.35" y="270" width="120" height="60" as="geometry"/>
        </mxCell>
        <mxCell id="EhvMbtUl6NeCa-5dUTGM-40" value="&lt;span style=&quot;font-size: 16px&quot;&gt;商品分享&lt;/span&gt;" style="rounded=0;whiteSpace=wrap;html=1;fontFamily=Helvetica;fontSize=22;" parent="1" vertex="1">
          <mxGeometry x="590.35" y="150" width="120" height="60" as="geometry"/>
        </mxCell>
        <mxCell id="EhvMbtUl6NeCa-5dUTGM-42" value="&lt;span style=&quot;font-size: 16px&quot;&gt;商品库存&lt;/span&gt;" style="rounded=0;whiteSpace=wrap;html=1;fontFamily=Helvetica;fontSize=22;" parent="1" vertex="1">
          <mxGeometry x="710.35" y="210" width="120" height="60" as="geometry"/>
        </mxCell>
        <mxCell id="EhvMbtUl6NeCa-5dUTGM-43" value="&lt;pre&gt;&lt;font style=&quot;font-size: 16px&quot;&gt;商品审核：&lt;span style=&quot;color: rgba(0 , 0 , 0 , 0.75) ; background-color: rgb(255 , 255 , 255) ; font-size: 16px&quot;&gt;是否需要审核通过才允许上架&lt;/span&gt;&lt;/font&gt;&lt;/pre&gt;" style="text;html=1;strokeColor=none;fillColor=none;align=left;verticalAlign=middle;whiteSpace=wrap;rounded=0;fontFamily=Helvetica;fontSize=16;fontStyle=0" parent="1" vertex="1">
          <mxGeometry x="276.85" y="774" width="720" height="20" as="geometry"/>
        </mxCell>
        <mxCell id="EhvMbtUl6NeCa-5dUTGM-44" value="&lt;pre&gt;&lt;font style=&quot;font-size: 16px&quot;&gt;商品打标：&lt;span style=&quot;color: rgba(0 , 0 , 0 , 0.75) ; font-size: 16px ; background-color: rgb(255 , 255 , 255)&quot;&gt;对商品进行标记，例如参加某种活动&lt;/span&gt;&lt;/font&gt;&lt;span style=&quot;color: rgba(0 , 0 , 0 , 0) ; font-size: 16px ; white-space: nowrap&quot;&gt;E&lt;/span&gt;&lt;/pre&gt;" style="text;html=1;strokeColor=none;fillColor=none;align=left;verticalAlign=middle;whiteSpace=wrap;rounded=0;fontFamily=Helvetica;fontSize=16;fontStyle=0" parent="1" vertex="1">
          <mxGeometry x="277.85" y="614" width="720" height="20" as="geometry"/>
        </mxCell>
        <mxCell id="EhvMbtUl6NeCa-5dUTGM-46" value="&lt;pre&gt;商品组合：组合商品关联关系，哪些关联度高，可以使用推荐算法推荐给用户&lt;br&gt;&lt;/pre&gt;" style="text;html=1;fontSize=16;fontFamily=Helvetica;" parent="1" vertex="1">
          <mxGeometry x="276.85" y="634" width="558.15" height="50" as="geometry"/>
        </mxCell>
        <mxCell id="EhvMbtUl6NeCa-5dUTGM-48" value="&lt;pre&gt;&lt;font style=&quot;font-size: 16px&quot;&gt;商品收藏：&lt;span style=&quot;background-color: rgb(255 , 255 , 255)&quot;&gt;管理用户收藏的商品&lt;/span&gt;&lt;/font&gt;&lt;/pre&gt;" style="text;html=1;strokeColor=none;fillColor=none;align=left;verticalAlign=middle;whiteSpace=wrap;rounded=0;fontFamily=Helvetica;fontSize=16;fontStyle=0" parent="1" vertex="1">
          <mxGeometry x="276.85" y="414" width="720" height="20" as="geometry"/>
        </mxCell>
        <mxCell id="EhvMbtUl6NeCa-5dUTGM-49" value="&lt;pre&gt;&lt;font style=&quot;font-size: 16px&quot;&gt;商品快照：&lt;span style=&quot;background-color: rgb(255 , 255 , 255)&quot;&gt;用于保存商品编辑的的每一个快照版本&lt;/span&gt;&lt;/font&gt;&lt;/pre&gt;" style="text;html=1;strokeColor=none;fillColor=none;align=left;verticalAlign=middle;whiteSpace=wrap;rounded=0;fontFamily=Helvetica;fontSize=16;fontStyle=0" parent="1" vertex="1">
          <mxGeometry x="276.85" y="694" width="720" height="20" as="geometry"/>
        </mxCell>
        <mxCell id="EhvMbtUl6NeCa-5dUTGM-51" value="&lt;pre&gt;销量管理：商品的销量统计、以及排序操作&lt;/pre&gt;" style="text;html=1;fontSize=16;fontFamily=Helvetica;align=left;" parent="1" vertex="1">
          <mxGeometry x="277" y="474" width="330" height="50" as="geometry"/>
        </mxCell>
        <mxCell id="EhvMbtUl6NeCa-5dUTGM-52" value="&lt;pre&gt;浏览历史：用户浏览记录，用户画像以及哪些商品更受欢迎&lt;/pre&gt;" style="text;html=1;fontSize=16;fontFamily=Helvetica;align=left;" parent="1" vertex="1">
          <mxGeometry x="276.85" y="434" width="200" height="40" as="geometry"/>
        </mxCell>
        <mxCell id="EhvMbtUl6NeCa-5dUTGM-53" value="&lt;pre&gt;搜索：不同维度对商品进行搜索&lt;br&gt;&lt;/pre&gt;" style="text;html=1;fontSize=16;fontFamily=Helvetica;align=left;" parent="1" vertex="1">
          <mxGeometry x="277.85" y="714" width="200" height="40" as="geometry"/>
        </mxCell>
        <mxCell id="EhvMbtUl6NeCa-5dUTGM-54" value="&lt;pre&gt;商品类目：商品类目具有导航功能，方便用户直达目标商品&lt;br&gt;&lt;/pre&gt;" style="text;html=1;fontSize=16;fontFamily=Helvetica;align=left;" parent="1" vertex="1">
          <mxGeometry x="277" y="514" width="200" height="40" as="geometry"/>
        </mxCell>
        <mxCell id="EhvMbtUl6NeCa-5dUTGM-57" value="&lt;pre&gt;&lt;font style=&quot;font-size: 16px&quot;&gt;商品属性: &lt;/font&gt;举例：黑色苹果7手机，他具有属性为颜色，属性值为黑色。&lt;/pre&gt;" style="text;html=1;strokeColor=none;fillColor=none;align=left;verticalAlign=middle;whiteSpace=wrap;rounded=0;fontFamily=Helvetica;fontSize=16;fontStyle=0" parent="1" vertex="1">
          <mxGeometry x="275.35" y="574" width="720" height="20" as="geometry"/>
        </mxCell>
        <mxCell id="EhvMbtUl6NeCa-5dUTGM-61" value="网关服务" style="rounded=0;whiteSpace=wrap;html=1;fontFamily=Helvetica;fontSize=16;align=center;" parent="1" vertex="1">
          <mxGeometry x="516.9200000000001" y="1957" width="160" height="40" as="geometry"/>
        </mxCell>
        <mxCell id="EhvMbtUl6NeCa-5dUTGM-62" value="商品服务" style="rounded=0;whiteSpace=wrap;html=1;fontFamily=Helvetica;fontSize=16;align=center;" parent="1" vertex="1">
          <mxGeometry x="232.92" y="2117" width="160" height="40" as="geometry"/>
        </mxCell>
        <mxCell id="EhvMbtUl6NeCa-5dUTGM-63" value="订单服务" style="rounded=0;whiteSpace=wrap;html=1;fontFamily=Helvetica;fontSize=16;align=center;" parent="1" vertex="1">
          <mxGeometry x="512.9200000000001" y="2117" width="160" height="40" as="geometry"/>
        </mxCell>
        <mxCell id="EhvMbtUl6NeCa-5dUTGM-64" value="支付服务" style="rounded=0;whiteSpace=wrap;html=1;fontFamily=Helvetica;fontSize=16;align=center;" parent="1" vertex="1">
          <mxGeometry x="792.9200000000001" y="2117" width="160" height="40" as="geometry"/>
        </mxCell>
        <mxCell id="EhvMbtUl6NeCa-5dUTGM-68" value="客户端/业务系统" style="rounded=0;whiteSpace=wrap;html=1;fontFamily=Helvetica;fontSize=16;align=center;" parent="1" vertex="1">
          <mxGeometry x="515" y="1837" width="162" height="40" as="geometry"/>
        </mxCell>
        <mxCell id="EhvMbtUl6NeCa-5dUTGM-70" value="" style="endArrow=classic;html=1;fontFamily=Helvetica;fontSize=16;exitX=0.5;exitY=1;exitDx=0;exitDy=0;entryX=0.5;entryY=0;entryDx=0;entryDy=0;" parent="1" source="EhvMbtUl6NeCa-5dUTGM-68" target="EhvMbtUl6NeCa-5dUTGM-61" edge="1">
          <mxGeometry width="50" height="50" relative="1" as="geometry">
            <mxPoint x="768.8500000000001" y="1917" as="sourcePoint"/>
            <mxPoint x="768.8500000000001" y="1817" as="targetPoint"/>
          </mxGeometry>
        </mxCell>
        <mxCell id="EhvMbtUl6NeCa-5dUTGM-71" value="" style="endArrow=classic;html=1;fontFamily=Helvetica;fontSize=16;entryX=0.5;entryY=0;entryDx=0;entryDy=0;" parent="1" edge="1">
          <mxGeometry width="50" height="50" relative="1" as="geometry">
            <mxPoint x="587" y="2007" as="sourcePoint"/>
            <mxPoint x="315.7700000000001" y="2117" as="targetPoint"/>
          </mxGeometry>
        </mxCell>
        <mxCell id="EhvMbtUl6NeCa-5dUTGM-72" value="" style="endArrow=classic;html=1;fontFamily=Helvetica;fontSize=16;exitX=0.5;exitY=1;exitDx=0;exitDy=0;entryX=0.5;entryY=0;entryDx=0;entryDy=0;" parent="1" edge="1">
          <mxGeometry width="50" height="50" relative="1" as="geometry">
            <mxPoint x="596.33" y="2007" as="sourcePoint"/>
            <mxPoint x="596.9200000000001" y="2117" as="targetPoint"/>
          </mxGeometry>
        </mxCell>
        <mxCell id="EhvMbtUl6NeCa-5dUTGM-73" value="" style="endArrow=classic;html=1;fontFamily=Helvetica;fontSize=16;exitX=0.5;exitY=1;exitDx=0;exitDy=0;" parent="1" edge="1">
          <mxGeometry width="50" height="50" relative="1" as="geometry">
            <mxPoint x="606" y="2007" as="sourcePoint"/>
            <mxPoint x="867" y="2107" as="targetPoint"/>
          </mxGeometry>
        </mxCell>
        <mxCell id="EhvMbtUl6NeCa-5dUTGM-74" value="" style="rounded=0;whiteSpace=wrap;html=1;fontFamily=Helvetica;fontSize=16;align=center;" parent="1" vertex="1">
          <mxGeometry x="77.89" y="2317" width="160" height="240" as="geometry"/>
        </mxCell>
        <mxCell id="EhvMbtUl6NeCa-5dUTGM-75" value="XXX课程" style="text;html=1;strokeColor=none;fillColor=none;align=center;verticalAlign=middle;whiteSpace=wrap;rounded=0;fontFamily=Helvetica;fontSize=16;" parent="1" vertex="1">
          <mxGeometry x="119.74" y="2337" width="80" height="20" as="geometry"/>
        </mxCell>
        <mxCell id="EhvMbtUl6NeCa-5dUTGM-76" value="&lt;span style=&quot;background-color: rgb(255 , 153 , 255)&quot;&gt;下单&lt;/span&gt;" style="text;html=1;strokeColor=none;fillColor=none;align=center;verticalAlign=middle;whiteSpace=wrap;rounded=0;fontFamily=Helvetica;fontSize=16;" parent="1" vertex="1">
          <mxGeometry x="148.24" y="2511" width="80" height="20" as="geometry"/>
        </mxCell>
        <mxCell id="EhvMbtUl6NeCa-5dUTGM-79" value="" style="rounded=0;whiteSpace=wrap;html=1;fontFamily=Helvetica;fontSize=16;align=center;" parent="1" vertex="1">
          <mxGeometry x="357.89" y="2317" width="160" height="240" as="geometry"/>
        </mxCell>
        <mxCell id="EhvMbtUl6NeCa-5dUTGM-80" value="确认订单" style="text;html=1;strokeColor=none;fillColor=none;align=center;verticalAlign=middle;whiteSpace=wrap;rounded=0;fontFamily=Helvetica;fontSize=16;" parent="1" vertex="1">
          <mxGeometry x="399.74" y="2337" width="80" height="20" as="geometry"/>
        </mxCell>
        <mxCell id="EhvMbtUl6NeCa-5dUTGM-81" value="&lt;span style=&quot;background-color: rgb(255 , 153 , 255)&quot;&gt;提交订单&lt;/span&gt;" style="text;html=1;strokeColor=none;fillColor=none;align=center;verticalAlign=middle;whiteSpace=wrap;rounded=0;fontFamily=Helvetica;fontSize=16;" parent="1" vertex="1">
          <mxGeometry x="428.24" y="2511" width="80" height="20" as="geometry"/>
        </mxCell>
        <mxCell id="EhvMbtUl6NeCa-5dUTGM-82" value="商品名称" style="text;html=1;strokeColor=none;fillColor=none;align=center;verticalAlign=middle;whiteSpace=wrap;rounded=0;fontFamily=Helvetica;fontSize=16;" parent="1" vertex="1">
          <mxGeometry x="368.24" y="2377" width="80" height="20" as="geometry"/>
        </mxCell>
        <mxCell id="EhvMbtUl6NeCa-5dUTGM-83" value="商品价格" style="text;html=1;strokeColor=none;fillColor=none;align=center;verticalAlign=middle;whiteSpace=wrap;rounded=0;fontFamily=Helvetica;fontSize=16;" parent="1" vertex="1">
          <mxGeometry x="368.24" y="2407" width="80" height="20" as="geometry"/>
        </mxCell>
        <mxCell id="EhvMbtUl6NeCa-5dUTGM-84" value="商品数量" style="text;html=1;strokeColor=none;fillColor=none;align=center;verticalAlign=middle;whiteSpace=wrap;rounded=0;fontFamily=Helvetica;fontSize=16;" parent="1" vertex="1">
          <mxGeometry x="368.24" y="2437" width="80" height="20" as="geometry"/>
        </mxCell>
        <mxCell id="EhvMbtUl6NeCa-5dUTGM-85" value="" style="rounded=0;whiteSpace=wrap;html=1;fontFamily=Helvetica;fontSize=16;align=center;" parent="1" vertex="1">
          <mxGeometry x="637.7399999999999" y="2317" width="160" height="240" as="geometry"/>
        </mxCell>
        <mxCell id="EhvMbtUl6NeCa-5dUTGM-86" value="订单详情" style="text;html=1;strokeColor=none;fillColor=none;align=center;verticalAlign=middle;whiteSpace=wrap;rounded=0;fontFamily=Helvetica;fontSize=16;" parent="1" vertex="1">
          <mxGeometry x="681.59" y="2337" width="80" height="20" as="geometry"/>
        </mxCell>
        <mxCell id="EhvMbtUl6NeCa-5dUTGM-87" value="&lt;span style=&quot;background-color: rgb(255 , 153 , 255)&quot;&gt;去支付&lt;/span&gt;" style="text;html=1;strokeColor=none;fillColor=none;align=center;verticalAlign=middle;whiteSpace=wrap;rounded=0;fontFamily=Helvetica;fontSize=16;" parent="1" vertex="1">
          <mxGeometry x="710.09" y="2511" width="80" height="20" as="geometry"/>
        </mxCell>
        <mxCell id="EhvMbtUl6NeCa-5dUTGM-88" value="商品信息" style="text;html=1;strokeColor=none;fillColor=none;align=center;verticalAlign=middle;whiteSpace=wrap;rounded=0;fontFamily=Helvetica;fontSize=16;" parent="1" vertex="1">
          <mxGeometry x="650.09" y="2377" width="80" height="20" as="geometry"/>
        </mxCell>
        <mxCell id="EhvMbtUl6NeCa-5dUTGM-89" value="用户信息" style="text;html=1;strokeColor=none;fillColor=none;align=center;verticalAlign=middle;whiteSpace=wrap;rounded=0;fontFamily=Helvetica;fontSize=16;" parent="1" vertex="1">
          <mxGeometry x="650.09" y="2407" width="80" height="20" as="geometry"/>
        </mxCell>
        <mxCell id="EhvMbtUl6NeCa-5dUTGM-92" value="" style="shape=flexArrow;endArrow=classic;html=1;fontFamily=Helvetica;fontSize=16;labelBackgroundColor=#99FF33;fillColor=#d5e8d4;strokeColor=#82b366;" parent="1" edge="1">
          <mxGeometry width="50" height="50" relative="1" as="geometry">
            <mxPoint x="242.89" y="2437" as="sourcePoint"/>
            <mxPoint x="352.89" y="2437" as="targetPoint"/>
          </mxGeometry>
        </mxCell>
        <mxCell id="EhvMbtUl6NeCa-5dUTGM-93" value="" style="shape=flexArrow;endArrow=classic;html=1;fontFamily=Helvetica;fontSize=16;fillColor=#d5e8d4;strokeColor=#82b366;" parent="1" edge="1">
          <mxGeometry width="50" height="50" relative="1" as="geometry">
            <mxPoint x="523.8100000000001" y="2437" as="sourcePoint"/>
            <mxPoint x="633.8100000000001" y="2437" as="targetPoint"/>
          </mxGeometry>
        </mxCell>
        <mxCell id="EhvMbtUl6NeCa-5dUTGM-94" value="" style="rounded=0;whiteSpace=wrap;html=1;fontFamily=Helvetica;fontSize=16;align=center;" parent="1" vertex="1">
          <mxGeometry x="915.7299999999999" y="2317" width="160" height="240" as="geometry"/>
        </mxCell>
        <mxCell id="EhvMbtUl6NeCa-5dUTGM-95" value="支付渠道选择" style="text;html=1;strokeColor=none;fillColor=none;align=center;verticalAlign=middle;whiteSpace=wrap;rounded=0;fontFamily=Helvetica;fontSize=16;" parent="1" vertex="1">
          <mxGeometry x="947.16" y="2337" width="99.65" height="20" as="geometry"/>
        </mxCell>
        <mxCell id="EhvMbtUl6NeCa-5dUTGM-96" value="支付宝支付" style="text;html=1;strokeColor=none;fillColor=none;align=center;verticalAlign=middle;whiteSpace=wrap;rounded=0;fontFamily=Helvetica;fontSize=16;" parent="1" vertex="1">
          <mxGeometry x="926.81" y="2377" width="100" height="20" as="geometry"/>
        </mxCell>
        <mxCell id="EhvMbtUl6NeCa-5dUTGM-97" value="微信支付" style="text;html=1;strokeColor=none;fillColor=none;align=center;verticalAlign=middle;whiteSpace=wrap;rounded=0;fontFamily=Helvetica;fontSize=16;" parent="1" vertex="1">
          <mxGeometry x="919.81" y="2407" width="100" height="20" as="geometry"/>
        </mxCell>
        <mxCell id="EhvMbtUl6NeCa-5dUTGM-100" value="" style="shape=flexArrow;endArrow=classic;html=1;fontFamily=Helvetica;fontSize=16;fillColor=#d5e8d4;strokeColor=#82b366;" parent="1" edge="1">
          <mxGeometry width="50" height="50" relative="1" as="geometry">
            <mxPoint x="802.73" y="2437" as="sourcePoint"/>
            <mxPoint x="912.73" y="2437" as="targetPoint"/>
          </mxGeometry>
        </mxCell>
        <mxCell id="EhvMbtUl6NeCa-5dUTGM-105" value="" style="rounded=0;whiteSpace=wrap;html=1;fontFamily=Helvetica;fontSize=16;align=center;" parent="1" vertex="1">
          <mxGeometry x="352.72999999999996" y="2637" width="160" height="230" as="geometry"/>
        </mxCell>
        <mxCell id="EhvMbtUl6NeCa-5dUTGM-106" value="我的订单列表" style="text;html=1;strokeColor=none;fillColor=none;align=center;verticalAlign=middle;whiteSpace=wrap;rounded=0;fontFamily=Helvetica;fontSize=16;" parent="1" vertex="1">
          <mxGeometry x="382.19" y="2657" width="101.08" height="20" as="geometry"/>
        </mxCell>
        <mxCell id="EhvMbtUl6NeCa-5dUTGM-108" value="&lt;span style=&quot;background-color: rgb(255 , 153 , 255)&quot;&gt;确认&lt;/span&gt;" style="text;html=1;strokeColor=none;fillColor=none;align=center;verticalAlign=middle;whiteSpace=wrap;rounded=0;fontFamily=Helvetica;fontSize=16;" parent="1" vertex="1">
          <mxGeometry x="996.8100000000001" y="2511" width="80" height="20" as="geometry"/>
        </mxCell>
        <mxCell id="EhvMbtUl6NeCa-5dUTGM-109" value="订单1" style="rounded=0;whiteSpace=wrap;html=1;fontFamily=Helvetica;fontSize=16;align=left;" parent="1" vertex="1">
          <mxGeometry x="372.65" y="2687" width="120" height="20" as="geometry"/>
        </mxCell>
        <mxCell id="EhvMbtUl6NeCa-5dUTGM-110" value="订单2" style="rounded=0;whiteSpace=wrap;html=1;fontFamily=Helvetica;fontSize=16;align=left;" parent="1" vertex="1">
          <mxGeometry x="372.65" y="2727" width="120" height="20" as="geometry"/>
        </mxCell>
        <mxCell id="EhvMbtUl6NeCa-5dUTGM-111" value="订单3" style="rounded=0;whiteSpace=wrap;html=1;fontFamily=Helvetica;fontSize=16;align=left;" parent="1" vertex="1">
          <mxGeometry x="372.65" y="2767" width="120" height="20" as="geometry"/>
        </mxCell>
        <mxCell id="EhvMbtUl6NeCa-5dUTGM-112" value="" style="rounded=0;whiteSpace=wrap;html=1;fontFamily=Helvetica;fontSize=16;align=center;" parent="1" vertex="1">
          <mxGeometry x="632.7299999999999" y="2637" width="160" height="230" as="geometry"/>
        </mxCell>
        <mxCell id="EhvMbtUl6NeCa-5dUTGM-113" value="订单详情" style="text;html=1;strokeColor=none;fillColor=none;align=center;verticalAlign=middle;whiteSpace=wrap;rounded=0;fontFamily=Helvetica;fontSize=16;" parent="1" vertex="1">
          <mxGeometry x="662.1899999999998" y="2657" width="101.08" height="20" as="geometry"/>
        </mxCell>
        <mxCell id="EhvMbtUl6NeCa-5dUTGM-117" value="&lt;span style=&quot;background-color: rgb(255 , 153 , 255)&quot;&gt;去支付&lt;/span&gt;" style="text;html=1;strokeColor=none;fillColor=none;align=center;verticalAlign=middle;whiteSpace=wrap;rounded=0;fontFamily=Helvetica;fontSize=16;" parent="1" vertex="1">
          <mxGeometry x="708.19" y="2829" width="80" height="20" as="geometry"/>
        </mxCell>
        <mxCell id="EhvMbtUl6NeCa-5dUTGM-118" value="商品信息" style="text;html=1;strokeColor=none;fillColor=none;align=center;verticalAlign=middle;whiteSpace=wrap;rounded=0;fontFamily=Helvetica;fontSize=16;" parent="1" vertex="1">
          <mxGeometry x="648.19" y="2695" width="80" height="20" as="geometry"/>
        </mxCell>
        <mxCell id="EhvMbtUl6NeCa-5dUTGM-119" value="用户信息" style="text;html=1;strokeColor=none;fillColor=none;align=center;verticalAlign=middle;whiteSpace=wrap;rounded=0;fontFamily=Helvetica;fontSize=16;" parent="1" vertex="1">
          <mxGeometry x="648.19" y="2725" width="80" height="20" as="geometry"/>
        </mxCell>
        <mxCell id="EhvMbtUl6NeCa-5dUTGM-121" value="" style="shape=flexArrow;endArrow=classic;html=1;fontFamily=Helvetica;fontSize=16;labelBackgroundColor=#99FF33;fillColor=#d5e8d4;strokeColor=#82b366;" parent="1" edge="1">
          <mxGeometry width="50" height="50" relative="1" as="geometry">
            <mxPoint x="517.5699999999998" y="2757" as="sourcePoint"/>
            <mxPoint x="627.5699999999998" y="2757" as="targetPoint"/>
          </mxGeometry>
        </mxCell>
        <mxCell id="EhvMbtUl6NeCa-5dUTGM-123" value="" style="shape=flexArrow;endArrow=classic;html=1;fontFamily=Helvetica;fontSize=16;labelBackgroundColor=#99FF33;fillColor=#d5e8d4;strokeColor=#82b366;" parent="1" edge="1">
          <mxGeometry width="50" height="50" relative="1" as="geometry">
            <mxPoint x="853.81" y="2717" as="sourcePoint"/>
            <mxPoint x="986.81" y="2617" as="targetPoint"/>
          </mxGeometry>
        </mxCell>
        <mxCell id="dlJwYuw9pM2FsFbWsUQo-1" value="&lt;font style=&quot;font-size: 25px&quot;&gt;服务之间调用关系&lt;/font&gt;" style="text;html=1;strokeColor=none;fillColor=none;align=center;verticalAlign=middle;whiteSpace=wrap;rounded=0;" vertex="1" parent="1">
          <mxGeometry x="471.85" y="1767" width="227" height="20" as="geometry"/>
        </mxCell>
        <mxCell id="dlJwYuw9pM2FsFbWsUQo-2" value="&lt;font style=&quot;font-size: 25px&quot;&gt;页面跳转逻辑&lt;/font&gt;" style="text;html=1;strokeColor=none;fillColor=none;align=center;verticalAlign=middle;whiteSpace=wrap;rounded=0;" vertex="1" parent="1">
          <mxGeometry x="472.85" y="2247" width="227" height="20" as="geometry"/>
        </mxCell>
      </root>
    </mxGraphModel>
  </diagram>
</mxfile>
